PathFileType	4	(X/Y/Z)	C:/Users/opensim2020/Desktop/walking_exp_matlab/subject06_walking21_straight_04.trc	
DataRate	CameraRate	NumFrames	NumMarkers	Units	OrigDataRate	OrigDataStartFrame	OrigNumFrames	
100.00	100.00	7	44	mm	100.00	2309	104	
Frame#	Time	LFHD			RFHD			LBHD			RBHD			C7			T10			CLAV			STRN			RBAK			LSHO			LUPA			LELB			LFRM			LWRA			LWRB			LFIN			RSHO			RUPA			RELB			RFRM			RWRA			RWRB			RFIN			LASI			RASI			LPSI			RPSI			LTHI			LKNE			LTIB			LANK			LHEE			LTOE			RTHI			RKNE			RTIB			RANK			RHEE			RTOE			*39			*40			*41			*42			*43			
		X1	Y1	Z1	X2	Y2	Z2	X3	Y3	Z3	X4	Y4	Z4	X5	Y5	Z5	X6	Y6	Z6	X7	Y7	Z7	X8	Y8	Z8	X9	Y9	Z9	X10	Y10	Z10	X11	Y11	Z11	X12	Y12	Z12	X13	Y13	Z13	X14	Y14	Z14	X15	Y15	Z15	X16	Y16	Z16	X17	Y17	Z17	X18	Y18	Z18	X19	Y19	Z19	X20	Y20	Z20	X21	Y21	Z21	X22	Y22	Z22	X23	Y23	Z23	X24	Y24	Z24	X25	Y25	Z25	X26	Y26	Z26	X27	Y27	Z27	X28	Y28	Z28	X29	Y29	Z29	X30	Y30	Z30	X31	Y31	Z31	X32	Y32	Z32	X33	Y33	Z33	X34	Y34	Z34	X35	Y35	Z35	X36	Y36	Z36	X37	Y37	Z37	X38	Y38	Z38	X39	Y39	Z39	X40	Y40	Z40	X41	Y41	Z41	X42	Y42	Z42	X43	Y43	Z43	X44	Y44	Z44	

27	0.260	1516.33911	730.13739	1668.87683	1385.30457	733.11780	1658.06921	1519.84619	863.81842	1614.88660	1391.35071	864.94794	1609.26917	1461.45630	863.71472	1455.17346	1446.72498	893.65570	1127.49072	1457.14355	751.17224	1380.38269	1460.17114	709.59460	1205.54456	1377.68372	934.32886	1285.84985	1620.19263	806.14398	1408.37207	1692.33984	816.08191	1206.29968	1704.27625	828.68243	1094.51770	1729.46619	811.58252	946.70874	1687.04272	757.90912	826.86432	1728.87952	817.03973	827.78137	1728.09338	782.32379	742.74274	1298.30029	802.02496	1415.08044	1201.94519	842.38452	1222.96582	1183.84241	833.35913	1101.44580	1162.68530	809.38757	984.21088	1192.15088	738.69574	850.65771	1149.78345	792.22021	847.69861	1146.59363	748.00812	776.26495	1556.99561	718.18384	972.70374	1338.53979	723.78564	966.59589	1532.01489	875.04181	1000.15729	1365.31287	872.73138	990.20874	1621.55811	771.80743	659.37201	1597.23889	762.64478	495.86267	1589.93079	807.81915	241.34084	1543.81775	823.80432	70.90354	1500.24890	866.16357	57.33395	1535.33362	680.37115	41.08669	1294.65051	725.49854	629.04523	1314.56714	683.70654	510.42154	1325.60681	854.21185	324.73291	1370.85803	994.58130	206.31831	1416.86475	1039.91003	215.24692	1372.60278	913.91876	76.84323	1459.69641	831.89081	1707.40125												 
28	0.270	1516.56726	715.85181	1669.44385	1385.55518	719.16290	1658.35303	1520.50281	849.63354	1615.71008	1392.01172	851.05389	1609.82727	1462.58508	849.94604	1455.74780	1448.33667	880.46802	1128.42029	1458.06213	737.46704	1380.96912	1461.37732	696.14172	1206.05481	1379.25562	921.01746	1286.60938	1620.98242	791.73883	1409.51660	1693.73523	798.30981	1207.58032	1706.07129	808.21313	1095.32666	1731.85730	787.02045	948.38635	1689.49329	729.93121	829.99695	1731.66931	789.02490	829.40674	1730.97888	751.48468	745.38672	1299.38501	788.99786	1415.54712	1203.63367	832.00439	1223.71277	1185.92200	824.32446	1102.03101	1164.51917	803.20648	984.22253	1193.03381	736.46802	848.24701	1151.30090	789.20203	847.33795	1147.91077	746.99304	774.68250	1558.91846	705.72186	972.53711	1339.92322	709.43768	967.89337	1533.08618	862.12207	1000.61835	1366.33142	859.35449	991.46490	1622.03296	763.07434	658.86432	1597.52478	757.15167	495.14490	1589.87524	806.43787	241.38545	1543.60278	823.66986	71.16673	1499.81152	865.97034	57.58715	1535.25842	680.16553	40.89295	1295.11780	706.50928	632.28491	1316.18530	662.12018	514.34509	1327.44482	826.27203	322.08417	1372.86670	961.28589	197.25223	1418.97595	1007.19147	203.13385	1373.66455	871.92072	73.96674	1460.05237	817.63977	1708.02551												 
29	0.280	1516.69531	701.56763	1669.78271	1385.81238	705.02997	1658.32605	1521.09253	835.43927	1616.27771	1392.63306	837.19110	1610.03809	1463.68250	836.08362	1456.13501	1449.94983	867.23602	1128.97681	1458.94519	723.75580	1381.20813	1462.60925	682.68542	1206.22803	1380.91626	907.64905	1287.00415	1621.84839	777.37939	1410.31824	1695.18445	780.81055	1208.55688	1708.19556	788.33197	1096.14172	1734.28809	762.71906	949.96387	1692.03503	701.71350	833.41443	1734.13989	760.84607	830.99164	1733.64685	720.46906	748.21545	1300.39453	775.85327	1415.64172	1205.08179	820.95758	1224.09631	1187.83228	815.36182	1102.24695	1166.26538	797.04980	983.93890	1194.22803	733.03668	846.27588	1152.80713	786.24994	846.78223	1149.19739	745.91492	772.73431	1560.87341	693.19226	972.04834	1342.04114	696.79846	968.47266	1534.13831	849.29462	1000.76318	1367.29968	846.06677	992.35321	1622.35217	754.30859	658.14972	1597.80981	751.71716	494.38309	1589.63647	804.95105	241.42381	1543.04407	823.06909	71.19625	1499.44690	865.87085	57.82672	1535.18445	679.93994	40.69627	1295.65820	687.54431	635.07983	1317.83618	640.86932	518.08826	1329.09729	798.32965	319.04419	1374.76807	927.04010	187.50037	1421.02161	973.04895	190.20738	1374.05371	829.81738	71.21281	1460.34619	803.36584	1708.34546												 
30	0.290	1516.67749	687.19855	1669.72888	1385.92163	691.04309	1657.99866	1521.59546	821.14172	1616.56934	1393.16650	823.26117	1609.99365	1464.70996	822.20544	1456.26208	1451.47632	853.97839	1129.16333	1459.83508	710.02234	1381.22156	1463.88318	669.37158	1206.08521	1382.71252	894.29700	1287.01843	1622.68884	763.13281	1410.79712	1696.68237	763.56079	1209.24976	1710.22852	768.70709	1096.62720	1736.69727	738.54181	951.34406	1694.54773	673.60846	836.95673	1736.27466	732.48834	832.40863	1736.20032	689.30566	751.29669	1301.30847	762.62079	1415.32983	1206.61523	810.32953	1224.04504	1189.62000	806.38617	1102.15613	1167.92590	790.85107	983.38953	1195.21985	729.60986	844.13519	1154.13757	783.20923	846.14600	1150.43628	744.93182	770.96039	1562.66443	680.61816	971.23676	1343.78491	683.80145	968.96094	1535.12817	836.51581	1000.62152	1368.30615	832.97473	992.82550	1622.38525	745.15234	657.37988	1598.12280	746.33057	493.57932	1589.30164	802.56049	241.28456	1542.68701	822.71362	71.33379	1498.80652	865.04126	57.97879	1535.13367	679.72308	40.57261	1296.10571	668.96875	637.54828	1319.43896	620.22070	521.69391	1330.75378	770.10529	315.49158	1376.53284	891.58557	177.06766	1423.18323	937.59637	176.96454	1374.71960	787.40234	67.56531	1460.52295	789.08917	1708.44543												 
31	0.300	1516.76343	672.75476	1669.52966	1385.99841	677.03894	1657.44482	1522.09814	806.84180	1616.57825	1393.66736	809.21466	1609.64551	1465.68665	808.27612	1456.12366	1452.98096	840.75891	1128.98071	1460.72546	696.24005	1380.94922	1465.20740	655.91315	1205.66235	1384.57275	880.87463	1286.73340	1623.61707	748.99170	1410.91895	1698.22632	746.53113	1209.62317	1712.43225	749.29999	1096.91235	1739.07007	714.60779	952.70001	1697.20862	645.72241	840.46667	1738.27966	704.26660	833.94275	1738.53125	658.09808	754.58936	1302.11353	749.32483	1414.60718	1208.20349	799.57703	1223.57556	1191.30762	797.40479	1101.73621	1169.29419	784.75507	982.62616	1196.05518	726.25555	841.87671	1155.66028	780.03937	845.02307	1151.69116	743.53314	768.90991	1564.45569	667.95038	970.07697	1344.90820	669.38458	969.19232	1536.04272	823.83063	1000.22070	1369.24573	819.93164	992.97443	1622.95337	736.88708	656.66968	1598.47913	740.79022	492.76315	1589.61121	800.18445	241.14607	1542.37683	822.40668	71.40886	1498.89990	865.18982	58.71737	1535.05884	679.51605	40.43135	1296.43396	650.09918	639.77515	1321.02100	600.10437	525.04071	1332.11755	741.72137	311.43289	1378.40222	855.49707	166.60402	1425.27222	900.99017	163.50227	1375.38708	744.98969	63.78762	1460.73413	774.76385	1708.24683												 
32	0.310	1516.76575	658.37354	1669.02747	1385.89404	662.48730	1656.45813	1522.47925	792.47662	1616.25830	1394.10730	795.16003	1608.97986	1466.62024	794.28314	1455.73145	1454.48962	827.46411	1128.40356	1461.59021	682.51501	1380.35657	1466.43237	642.52881	1205.01428	1386.42859	867.45184	1286.14075	1624.57251	734.83405	1410.68982	1699.84485	729.67273	1209.66443	1714.54639	730.01788	1096.88794	1740.12878	689.62469	953.20959	1699.59229	617.44092	844.38397	1740.10303	676.13525	835.56281	1740.61597	626.83777	758.09253	1302.89111	735.94940	1413.52954	1209.81628	788.71429	1222.81482	1192.99316	788.27014	1100.99353	1170.73962	778.37946	981.63257	1196.77039	722.67596	839.53741	1156.96863	776.84180	843.94550	1152.82446	742.26105	766.82581	1565.92346	655.31696	968.69373	1347.20422	657.48865	968.63080	1536.84912	811.17328	999.54932	1369.96143	806.63342	992.76941	1622.88586	727.80573	655.61127	1598.83667	734.89130	491.83273	1589.80042	797.40161	240.94971	1542.27649	822.00031	71.49254	1498.97095	865.14105	59.26036	1535.14075	679.35791	40.38972	1296.98950	632.08405	641.82306	1322.41846	580.65204	527.80927	1333.30835	713.03741	306.92157	1379.97974	817.97748	155.83975	1427.31262	863.41443	149.89198	1376.23157	702.10992	59.97977	1460.82019	760.45264	1707.72205												 
33	0.320	1516.83472	643.90088	1668.31689	1385.82678	648.36945	1655.30774	1522.86951	778.07526	1615.67041	1394.53088	781.08020	1608.06213	1467.56653	780.23407	1455.09644	1455.91626	814.21112	1127.53467	1462.36389	668.69824	1379.43982	1467.64526	628.90662	1204.11230	1388.29138	854.00623	1285.34143	1625.47852	720.70343	1410.17163	1701.41284	712.94128	1209.44897	1716.68811	710.84662	1096.67395	1742.63318	665.95184	954.65271	1701.86523	589.26782	848.53369	1741.63696	647.96545	837.23358	1742.92993	596.04852	762.05328	1303.59863	722.42804	1412.16394	1211.61401	778.10822	1221.73340	1194.64075	779.07550	1099.97119	1172.09204	771.83466	980.47522	1197.38354	718.96362	837.13104	1158.15845	773.72858	842.66626	1153.75098	740.96301	764.79974	1567.14233	642.16266	967.31464	1348.63049	643.51886	968.14673	1537.44763	798.58850	998.64380	1370.49451	793.11798	992.21558	1623.17419	719.05487	654.54346	1599.20935	728.61066	490.83801	1590.10901	794.42041	240.83990	1542.31726	821.59863	71.64989	1498.95642	864.93939	59.61411	1535.03479	679.01123	40.15937	1297.26587	614.51154	643.43396	1323.52795	561.98792	530.14795	1334.48755	683.75775	302.03247	1381.54834	780.12604	145.20390	1429.17322	824.96362	136.41713	1376.47241	658.41882	56.77458	1460.90674	746.04095	1706.92041												 
